# xmcd
#
# Track frame offsets: 
#        150
#        21593
#        43592
#        69805
#        87046
#        106075
#        122409
#        135471
#        158654
#        177431
#        203031
#        230647
#
# Disc length: 3344 seconds
#
# Revision: 0
# Processed by: cddbd v1.5.2PL0 Copyright (c) Steve Scherf et al.
# Submitted via: ExactAudioCopyFreeDBPlugin 1.0
#
DISCID=920d0e0c
DTITLE=Big Joe Shelton - Ridin' A Chicken
DYEAR=2017
DGENRE=Blues
TTITLE0=Put The Chairs In The Wagon
TTITLE1=Ridin' A Chicken
TTITLE2=Got So Hot
TTITLE3=I Done Got Tired
TTITLE4=Just Let Me Bleed
TTITLE5=Inhale Blessings
TTITLE6=No Man's Land
TTITLE7=Pool Hall Red
TTITLE8=Lorraine
TTITLE9=Too Wet To Plow
TTITLE10=Time To Go Home
TTITLE11=My Future Lies Behind Me Now
EXTD=
EXTT0=
EXTT1=
EXTT2=
EXTT3=
EXTT4=
EXTT5=
EXTT6=
EXTT7=
EXTT8=
EXTT9=
EXTT10=
EXTT11=
PLAYORDER=
